<svg id='svg' version="1.2" baseProfile="tiny" xmlns="http://www.w3.org/2000/svg" xmlns:xlink="http://www.w3.org/1999/xlink"
	 x="0px" y="0px" viewBox="0 0 1400 1000" xml:space="preserve">
<style>
	circle{
	cursor:pointer;
	}
</style>
<g id="wrapper">
<rect x="0" y="2" fill="#ED7A7A" width="1400" height="998"/>
<line fill="none" stroke="#939FE5" stroke-width="3" stroke-miterlimit="10" x1="372.4" y1="2.1" x2="428.2" y2="706.2"/>
<line fill="none" stroke="#939FE5" stroke-width="3" stroke-miterlimit="10" x1="680" y1="2.1" x2="740.3" y2="706.2"/>
<line fill="none" stroke="#939FE5" stroke-width="3" stroke-miterlimit="10" x1="978.6" y1="2.1" x2="1037.4" y2="706.2"/>
<line fill="none" stroke="#939FE5" stroke-width="3" stroke-miterlimit="10" x1="1280.1" y1="2.1" x2="1334.4" y2="706.2"/>
<line fill="none" stroke="#939FE5" stroke-width="3" stroke-miterlimit="10" x1="0" y1="146.9" x2="1399.2" y2="41.3"/>
<line fill="none" stroke="#939FE5" stroke-width="3" stroke-miterlimit="10" x1="60.3" y1="2.1" x2="114.6" y2="706.2"/>
<line fill="none" stroke="#939FE5" stroke-width="3" stroke-miterlimit="10" x1="0" y1="421.3" x2="92" y2="413.7"/>
<line fill="none" stroke="#939FE5" stroke-width="3" stroke-miterlimit="10" x1="0" y1="557" x2="102.5" y2="549.4"/>
<line fill="none" stroke="#939FE5" stroke-width="3" stroke-miterlimit="10" x1="0" y1="700.2" x2="1399.2" y2="590.1"/>
<line fill="none" stroke="#939FE5" stroke-width="3" stroke-miterlimit="10" x1="1399.2" y1="314.2" x2="402.5" y2="392.5"/>
<line fill="none" stroke="#939FE5" stroke-width="3" stroke-miterlimit="10" x1="517.2" y1="107.6" x2="545.8" y2="380.6"/>
<line fill="none" stroke="#939FE5" stroke-width="3" stroke-miterlimit="10" x1="722.2" y1="501.2" x2="414.6" y2="526.8"/>
<polyline fill="none" stroke="#939FE5" stroke-width="3" stroke-miterlimit="10" points="799.4,86.5 806.7,157.4 799.1,190.6 
	811.2,361 830.8,552.5 "/>
<line fill="none" stroke="#939FE5" stroke-width="3" stroke-miterlimit="10" x1="872.5" y1="81" x2="899.4" y2="353.4"/>
<line fill="none" stroke="#939FE5" stroke-width="3" stroke-miterlimit="10" x1="808.2" y1="2.1" x2="830.8" y2="84.2"/>
<line fill="none" stroke="#939FE5" stroke-width="3" stroke-miterlimit="10" x1="1141.4" y1="706.2" x2="1087.1" y2="2.1"/>
<line fill="none" stroke="#939FE5" stroke-width="3" stroke-miterlimit="10" x1="1231.9" y1="706.2" x2="1180.6" y2="2.1"/>
<g>
	<path fill="#FCFCFC" d="M1056.2,233c0.8,0.2,1.6,0.4,2.4,0.6c5.1,1.3,9.8,3.2,14.1,6.3c5.8,4.1,9.9,9.5,12,16.3
		c0.3,0.9,0.4,1.8,0.4,2.7c0,6.2,0,12.3,0,18.5c0,0.2,0,0.4,0.3,0.5c3.9,2.5,7.8,5,11.7,7.5c0,0.1,0,0.1,0,0.2
		c-0.9-0.6-1.9-1.2-2.8-1.8c-3.3-2.1-6.6-4.3-9.9-6.4c-0.3-0.2-0.3-0.3-0.3-0.6c0-4.9,0-9.9,0-14.8c0-0.1,0-0.3,0-0.5
		c-0.2,0-0.3,0-0.5,0c-0.1-0.8-0.3-1.5-0.4-2.3c-1.3-5.4-3.8-10.2-7.6-14.2c-4-4.2-8.9-6.9-14.4-8.4c-1.6-0.5-3.3-0.8-5-1.1
		c-0.5-0.1-1,0.1-1.5,0.1c-5.2,1-10.1,2.8-14.5,6c-6.4,4.7-10.3,11.1-11.8,18.9c-0.1,0.3-0.1,0.7-0.1,1c-0.2,0-0.3,0-0.5,0
		c0,0.2,0,0.3,0,0.5c0,4.9,0,9.9,0,14.8c0,0.3-0.1,0.5-0.4,0.7c-3.6,2.3-7.2,4.7-10.8,7c-1.7,1.1-3.4,2.2-5.1,3.3
		c-0.1,0.1-0.2,0.2-0.3,0.3c-0.2,0-0.3,0-0.2-0.2c0.8-0.5,1.7-1,2.5-1.6c4.3-2.8,8.7-5.6,13-8.4c0.2-0.2,0.3-0.3,0.3-0.6
		c0-6.1,0-12.2,0-18.2c0-1,0.1-2,0.5-3c1.4-4.6,3.8-8.6,7.2-12.1c4.1-4.2,9-7.1,14.5-9.1c2.2-0.8,4.4-1.4,6.6-1.9
		c0.1,0,0.1-0.1,0.2-0.1C1055.8,233,1056,233,1056.2,233z M1084.1,261.4c0-0.1,0-0.1,0-0.2c-0.1-2.2-0.6-4.2-1.3-6.3
		c-2.2-6.2-6.2-10.9-11.7-14.4c-4.6-2.9-9.6-4.7-14.9-5.8c-0.1,0-0.3,0-0.4,0c-3.2,0.7-6.3,1.6-9.3,2.8c-4,1.7-7.6,3.9-10.7,7
		c-4.1,4.1-6.8,9-7.8,14.8c-0.1,0.7-0.2,1.4-0.2,2c0.3,0.1,0.4,0,0.4-0.2c0-0.4,0.1-0.8,0.2-1.1c1.9-8.7,6.5-15.4,14.2-20
		c4-2.4,8.3-3.8,12.9-4.6c0.2,0,0.5-0.1,0.7,0c2.3,0.4,4.7,1,6.9,1.7c4.6,1.6,8.7,4,12.2,7.4c3.4,3.3,5.8,7.3,7.3,11.8
		c0.6,1.7,1,3.4,1.2,5.1c0.1,0,0.1,0,0.2,0C1083.9,261.4,1084,261.4,1084.1,261.4z"/>
	<path fill="#FCFCFC" d="M1094.3,284.9c-1.7-1.1-3.5-2.2-5.2-3.4c-2.6-1.7-5.2-3.4-7.8-5c-0.3-0.2-0.4-0.4-0.4-0.7
		c0-0.9,0-1.8,0-2.8c0-3.5,0-6.9,0-10.4c0-0.1,0-0.2,0-0.4c-0.1,0-0.3,0-0.4,0c-0.2-0.9-0.3-1.8-0.6-2.7
		c-2.1-7.8-6.7-13.5-13.8-17.3c-3.2-1.6-6.6-2.7-10.1-3.2c-0.4-0.1-0.9,0.1-1.4,0.2c-4,0.8-7.9,2.1-11.4,4.4
		c-6.3,4.1-10.2,9.9-11.8,17.2c-0.1,0.4-0.1,0.9-0.2,1.4c-0.1,0-0.2,0-0.4,0.1c0,0.2,0,0.3,0,0.5c0,4.4,0,8.7,0,13.1
		c0,0.3-0.1,0.5-0.4,0.7c-3.8,2.5-7.6,4.9-11.5,7.4c-1,0.6-1.9,1.2-2.9,1.9c-0.1,0.1-0.2,0.1-0.3,0.1c0,0,0-0.1,0-0.1
		c0.1-0.1,0.2-0.1,0.3-0.2c4.5-2.9,9-5.8,13.5-8.7c0.2-0.2,0.3-0.3,0.3-0.6c0-5.4,0-10.7,0-16.1c0-1.1,0.2-2,0.5-3
		c2.2-6.7,6.4-11.7,12.4-15.3c3.9-2.4,8.1-3.9,12.5-4.8c0.4-0.1,0.9-0.1,1.3,0c4.5,1,8.9,2.6,12.8,5c4.5,2.8,8.1,6.5,10.5,11.3
		c0.8,1.7,1.5,3.4,2,5.2c0.1,0.2,0.1,0.5,0.1,0.8c0,5.2,0,10.5,0,15.7c0,0.4,0,0.9,0,1.3c0,0.2,0.1,0.4,0.3,0.5
		c4,2.6,7.9,5.1,11.9,7.7c0.1,0.1,0.2,0.2,0.3,0.2C1094.4,284.9,1094.4,284.9,1094.3,284.9z M1081,262.1c0-0.1,0-0.1,0-0.2
		c-0.2-3-1.1-5.8-2.5-8.5c-2.2-4.3-5.4-7.5-9.5-10.1c-3.5-2.2-7.4-3.6-11.4-4.6c-1.1-0.3-2.2-0.3-3.4,0c-4.4,1.1-8.6,2.7-12.3,5.2
		c-5.6,3.8-9.4,9-10.7,15.7c-0.2,0.8-0.2,1.6-0.3,2.4c0.1,0,0.1,0.1,0.2,0.1c0.1-0.1,0.2-0.1,0.2-0.2c0.1-0.2,0.1-0.5,0.1-0.7
		c1.4-7,4.9-12.7,10.8-16.9c3.9-2.8,8.2-4.4,12.9-5.2c0.4-0.1,0.8-0.2,1.1-0.1c2.7,0.4,5.3,1.1,7.9,2.2c6.7,2.8,11.7,7.5,14.7,14.2
		c1,2.2,1.6,4.4,2,6.8c0.1,0,0.1,0,0.2,0C1080.9,262.1,1081,262.1,1081,262.1z"/>
	<path fill="#FCFCFC" d="M1090.1,283.2c-0.3-0.2-0.6-0.4-0.9-0.5c-3.6-2.3-7.1-4.6-10.7-6.9c-0.2-0.2-0.3-0.3-0.3-0.6
		c0-3.9,0-7.7,0-11.6c0-0.1,0-0.3,0-0.4c-0.1,0-0.2,0-0.4-0.1c-0.1-0.7-0.3-1.4-0.4-2.1c-1.8-7.1-5.9-12.3-12.4-15.7
		c-2.8-1.5-5.8-2.3-8.9-2.9c-0.5-0.1-1,0.1-1.5,0.2c-3.7,0.7-7.1,2-10.2,4c-5.7,3.8-9.1,9.2-10.3,15.9c0,0.1,0,0.3-0.1,0.4
		c0,0,0,0,0,0.1c-0.1,0-0.2,0-0.4,0.1c0,0.1,0,0.3,0,0.4c0,3.9,0,7.8,0,11.7c0,0.2,0,0.4-0.2,0.5c-4.2,2.7-8.5,5.5-12.7,8.2
		c-0.1,0.1-0.2,0.2-0.4,0.2c0,0-0.1-0.1-0.1-0.1c0.1-0.1,0.1-0.2,0.2-0.2c1.6-1.1,3.2-2.1,4.9-3.2c2.4-1.5,4.7-3.1,7.1-4.6
		c0.2-0.2,0.3-0.3,0.3-0.6c0-5,0-9.9,0-14.9c0-0.9,0.3-1.7,0.6-2.5c1.8-5.2,5-9.2,9.5-12.4c3.5-2.4,7.4-3.9,11.5-5
		c1.3-0.3,2.5-0.3,3.7,0.1c3.5,1.1,7,2.3,10.1,4.2c5,3.2,8.6,7.5,10.6,13.2c0.5,1.5,0.5,3,0.5,4.5c0,4.3,0,8.6,0,12.9
		c0,0.1,0.1,0.3,0.3,0.4c3.5,2.3,7,4.5,10.5,6.8c0.1,0.1,0.2,0.2,0.3,0.3C1090.2,283.2,1090.2,283.2,1090.1,283.2z M1033.7,262.9
		c0,0,0.1,0,0.1,0.1c0-0.1,0.1-0.2,0.1-0.3c1.1-6.3,4.2-11.5,9.3-15.4c3.4-2.5,7.2-4,11.3-4.8c0.5-0.1,1.1-0.3,1.6-0.2
		c2.2,0.3,4.4,0.9,6.4,1.7c6.6,2.6,11.3,7.1,14,13.7c0.6,1.6,1.1,3.2,1.4,4.9c0,0.1,0.1,0.2,0.2,0.3c0,0,0.1,0,0.1-0.1
		c0,0,0-0.1,0-0.1c-0.1-1.5-0.4-3-0.9-4.5c-1.7-5.1-5-8.9-9.4-11.8c-3.6-2.3-7.6-3.7-11.8-4.6c-0.1,0-0.2,0-0.4,0
		c-4.1,0.9-8,2.2-11.6,4.5c-5,3.2-8.4,7.5-10,13.2C1033.9,260.6,1033.7,261.7,1033.7,262.9z"/>
	<path fill="#FCFCFC" d="M1049.3,269.9c-1.4,0-2.7,0-4,0c0,1.8,0,3.7,0,5.5c-0.5,0-0.9,0-1.3,0c0-4.9,0-9.8,0-14.8
		c0.4,0,0.8,0,1.3,0c0,2.7,0,5.3,0,8c1.4,0,2.7,0,4.1,0c0-2.7,0-5.3,0-8c0.5,0,0.9,0,1.3,0c0,4.9,0,9.8,0,14.7c-0.4,0-0.9,0-1.3,0
		C1049.3,273.6,1049.3,271.8,1049.3,269.9z"/>
	<path fill="#FCFCFC" d="M1054.8,260.6c0.8,1.1,1.2,2.2,1.7,3.4c0.8,2.3,1.3,4.6,1.5,7c0.1,1.4,0.2,2.7,0.2,4.1c0,0.1,0,0.3,0,0.4
		c-0.5,0-0.9,0-1.3,0c-0.1-1.8-0.2-3.6-0.3-5.5c-0.3,0-0.5,0-0.7,0c-0.8,0-1.7,0-2.5,0c-0.3,0-0.4,0.1-0.4,0.4
		c-0.1,1.6-0.2,3.3-0.3,4.9c0,0.1,0,0.1,0,0.2c-0.4,0-0.8,0-1.3,0C1051.6,270.3,1052.1,265.3,1054.8,260.6z M1056.4,268.8
		c-0.3-2.1-0.8-4.2-1.6-6.2c-0.6,1.3-1.6,5.4-1.5,6.2C1054.3,268.8,1055.3,268.8,1056.4,268.8z"/>
	<path fill="#FCFCFC" d="M1059,275.5c0-0.1,0-0.3,0-0.4c0-4.7,0-9.3,0-14c0-0.3,0.1-0.5,0.4-0.5c1.1-0.3,2.1-0.1,3.1,0.6
		c2.7,1.9,2.6,6.4-0.2,8.2c-0.3,0.2-0.6,0.3-0.9,0.4c-0.3,0.1-0.6,0.1-1,0.2c0,1.8,0,3.6,0,5.5
		C1059.9,275.5,1059.4,275.5,1059,275.5z M1060.3,268.8c0.6,0,1.2-0.3,1.6-0.7c1.4-1.4,1.5-4,0.2-5.6c-0.5-0.6-1-0.9-1.8-0.9
		C1060.3,264,1060.3,266.4,1060.3,268.8z"/>
	<path fill="#FCFCFC" d="M1066.6,267.4c0,2.3,0,4.6,0,7c1.3,0,2.7,0,4.1,0c-0.5,0.4-0.9,0.7-1.3,1.1c-0.1,0.1-0.2,0.1-0.4,0.1
		c-1.2,0-2.4,0-3.6,0c-0.1,0-0.1,0-0.2,0c0-4.9,0-9.8,0-14.7c1.8,0,3.5,0,5.4,0c-0.5,0.4-0.9,0.7-1.3,1.1c-0.1,0.1-0.2,0-0.3,0
		c-0.7,0-1.4,0-2.1,0c-0.1,0-0.3,0-0.4,0c0,1.5,0,2.9,0,4.4c1.3,0,2.7,0,4,0c0,0,0,0.1,0,0.1c-0.4,0.3-0.8,0.7-1.2,1
		c-0.1,0.1-0.2,0-0.3,0c-0.7,0-1.4,0-2,0C1066.8,267.4,1066.7,267.4,1066.6,267.4z"/>
	<path fill="#FCFCFC" d="M1042.5,264.4c-0.2-0.5-0.3-0.9-0.5-1.3c-0.1-0.3-0.3-0.6-0.5-0.9c-0.4-0.5-1-0.5-1.4,0
		c-0.3,0.5-0.6,1.1-0.8,1.7c-0.5,1.7-0.6,3.5-0.5,5.2c0.1,1.2,0.2,2.4,0.6,3.5c0.2,0.4,0.4,0.8,0.6,1.2c0.5,0.6,1.1,0.6,1.5,0
		c0.3-0.5,0.5-1.1,0.7-1.6c0.1-0.1,0.1-0.3,0.2-0.5c0.3,0.6,0.5,1.1,0.7,1.5c0,0.1,0,0.2,0,0.2c-0.4,0.5-0.7,1.1-1.1,1.5
		c-0.7,0.7-1.7,0.7-2.5,0c-0.8-0.8-1.3-1.7-1.5-2.8c-0.9-3.2-0.8-6.4,0.5-9.5c0.2-0.6,0.7-1.1,1.1-1.5c0.8-0.7,1.8-0.6,2.6,0.2
		c0.3,0.4,0.6,0.9,0.9,1.3c0,0.1,0.1,0.2,0.1,0.2C1042.9,263.4,1042.7,263.9,1042.5,264.4z"/>
	<path fill="#FCFCFC" d="M1072.7,274.4c1.4,0,2.7,0,4.1,0c-0.5,0.4-0.9,0.8-1.3,1.1c0,0-0.1,0-0.2,0c-1.3,0-2.6,0-3.9,0
		c0-4.9,0-9.8,0-14.8c0.4,0,0.8,0,1.3,0C1072.7,265.3,1072.7,269.8,1072.7,274.4z"/>
	<path fill="#FCFCFC" d="M1053.3,248.9c0.3,0,0.6,0,0.9,0c0,1.3,0,2.6,0,4c0.9,0,1.8,0,2.7,0c0-1.3,0-2.6,0-4c0.3,0,0.6,0,0.9,0
		c0,2.4,0,4.8,0,7.3c-0.3,0-0.5,0-0.9,0c0-0.9,0-1.8,0-2.7c-0.9,0-1.8,0-2.7,0c0,0.9,0,1.7,0,2.7c-0.3,0-0.6,0-0.9,0
		C1053.3,253.7,1053.3,251.3,1053.3,248.9z"/>
	<path fill="#FCFCFC" d="M1059.3,251.5c0.9,0,1.8,0,2.7,0c-0.8,0.9-1.7,0.5-2.7,0.6c0,1.1,0,2.2,0,3.4c0.9,0,1.7,0,2.6,0
		c0,0,0,0.1,0,0.1c-0.3,0.2-0.6,0.4-0.9,0.4c-0.9,0.1-1.8,0-2.7,0c0-2.4,0-4.8,0-7.3c1.2,0,2.3,0,3.6,0c-0.4,0.3-0.8,0.6-1.3,0.6
		c-0.5,0-0.9,0-1.4,0C1059.3,250.1,1059.3,250.8,1059.3,251.5z"/>
	<path fill="#FCFCFC" d="M1050.7,249.4c-0.5,0-0.9,0-1.3,0c0,0,0-0.1,0-0.1c0.3-0.1,0.7-0.4,1-0.4c0.8-0.1,1.6,0,2.5,0
		c0,0,0,0.1,0,0.1c-0.4,0.2-0.8,0.4-1.3,0.6c0,2.1,0,4.3,0,6.6c-0.3,0-0.6,0-0.9,0C1050.7,253.9,1050.7,251.7,1050.7,249.4z"/>
	<path fill="#FCFCFC" d="M1084.1,261.4c-0.1,0-0.2,0-0.2,0c0,0-0.1,0-0.2,0c-0.2-1.7-0.6-3.4-1.2-5.1c-1.5-4.5-3.9-8.4-7.3-11.8
		c-3.5-3.4-7.6-5.8-12.2-7.4c-2.3-0.8-4.6-1.3-6.9-1.7c-0.2,0-0.5,0-0.7,0c-4.5,0.8-8.9,2.2-12.9,4.6c-7.7,4.6-12.3,11.3-14.2,20
		c-0.1,0.4-0.1,0.8-0.2,1.1c0,0.2-0.1,0.3-0.4,0.2c0.1-0.7,0.1-1.3,0.2-2c1-5.8,3.6-10.7,7.8-14.8c3.1-3.1,6.7-5.3,10.7-7
		c3-1.3,6.1-2.2,9.3-2.8c0.1,0,0.3,0,0.4,0c5.3,1.1,10.3,2.9,14.9,5.8c5.5,3.5,9.5,8.2,11.7,14.4c0.7,2,1.2,4.1,1.3,6.3
		C1084.1,261.2,1084.1,261.3,1084.1,261.4z"/>
	<path fill="#FCFCFC" d="M1081,262.1c-0.1,0-0.1,0-0.1,0c0,0-0.1,0-0.2,0c-0.3-2.4-1-4.7-2-6.8c-3-6.7-7.9-11.3-14.7-14.2
		c-2.5-1.1-5.2-1.8-7.9-2.2c-0.4-0.1-0.8,0.1-1.1,0.1c-4.7,0.9-9,2.4-12.9,5.2c-5.8,4.2-9.4,9.9-10.8,16.9c0,0.2-0.1,0.5-0.1,0.7
		c0,0.1-0.1,0.2-0.2,0.2c-0.1,0-0.1-0.1-0.2-0.1c0.1-0.8,0.2-1.6,0.3-2.4c1.4-6.7,5.1-11.9,10.7-15.7c3.8-2.6,7.9-4.1,12.3-5.2
		c1.1-0.3,2.2-0.3,3.4,0c4,1,7.9,2.4,11.4,4.6c4,2.5,7.3,5.8,9.5,10.1c1.4,2.7,2.3,5.5,2.5,8.5C1081,262,1081,262,1081,262.1z"/>
	<path fill="#FCFCFC" d="M1033.7,262.9c0.1-1.1,0.2-2.3,0.5-3.4c1.5-5.7,5-10,10-13.2c3.6-2.3,7.5-3.6,11.6-4.5c0.1,0,0.2,0,0.4,0
		c4.2,0.9,8.2,2.3,11.8,4.6c4.5,2.9,7.7,6.7,9.4,11.8c0.5,1.5,0.8,3,0.9,4.5c0,0,0,0.1,0,0.1c0,0-0.1,0-0.1,0.1
		c-0.1-0.1-0.2-0.2-0.2-0.3c-0.3-1.7-0.7-3.3-1.4-4.9c-2.7-6.6-7.4-11.1-14-13.7c-2.1-0.8-4.2-1.4-6.4-1.7c-0.5-0.1-1.1,0.1-1.6,0.2
		c-4.1,0.8-7.9,2.3-11.3,4.8c-5.2,3.9-8.2,9-9.3,15.4c0,0.1-0.1,0.2-0.1,0.3C1033.8,262.9,1033.7,262.9,1033.7,262.9z"/>
</g>
<polygon id="park" fill="#75EAAA" points="87,152 126,679 400,659 360,131 "/>
<g id="text">
	
		<text transform="matrix(0.9973 -7.328141e-02 7.328141e-02 0.9973 554.1409 98.4961)" fill="#F9F9F9" font-family="'Futura-Bold'" font-size="30px">1</text>
	
		<text transform="matrix(0.9973 -7.328141e-02 7.328141e-02 0.9973 572.7206 97.1309)" fill="#F9F9F9" font-family="'Futura-Bold'" font-size="30px">8</text>
	
		<text transform="matrix(0.9981 -6.200973e-02 6.200973e-02 0.9981 587.036 371.2828)" fill="#F9F9F9" font-family="'Futura-Bold'" font-size="30px">1</text>
	
		<text transform="matrix(0.9981 -6.200973e-02 6.200973e-02 0.9981 605.7499 370.1201)" fill="#F9F9F9" font-family="'Futura-Bold'" font-size="30px">9</text>
	
		<text transform="matrix(0.9978 -6.574226e-02 6.574226e-02 0.9978 608.0711 645.3632)" fill="#F9F9F9" font-family="'Futura-Bold'" font-size="30px">20</text>
	
		<text transform="matrix(8.051120e-02 0.9968 -0.9968 8.051120e-02 394.4561 190.1172)" fill="#F9F9F9" font-family="'Futura-Bold'" font-size="30px">D</text>
	
		<text transform="matrix(8.051120e-02 0.9968 -0.9968 8.051120e-02 396.3545 213.6207)" fill="#F9F9F9" font-family="'Futura-Bold'" font-size="30px">O</text>
	
		<text transform="matrix(8.051120e-02 0.9968 -0.9968 8.051120e-02 398.5887 241.2801)" fill="#F9F9F9" font-family="'Futura-Bold'" font-size="30px">L</text>
	
		<text transform="matrix(8.051120e-02 0.9968 -0.9968 8.051120e-02 399.8374 256.7395)" fill="#F9F9F9" font-family="'Futura-Bold'" font-size="30px">O</text>
	
		<text transform="matrix(8.051120e-02 0.9968 -0.9968 8.051120e-02 402.0715 284.399)" fill="#F9F9F9" font-family="'Futura-Bold'" font-size="30px">R</text>
	
		<text transform="matrix(8.051120e-02 0.9968 -0.9968 8.051120e-02 403.784 305.5999)" fill="#F9F9F9" font-family="'Futura-Bold'" font-size="30px">E</text>
	
		<text transform="matrix(8.051120e-02 0.9968 -0.9968 8.051120e-02 405.1607 322.6445)" fill="#F9F9F9" font-family="'Futura-Bold'" font-size="30px">S</text>
	
		<text transform="matrix(9.323794e-02 0.9956 -0.9956 9.323794e-02 699.3369 151.3172)" fill="#F9F9F9" font-family="'Futura-Bold'" font-size="30px">G</text>
	
		<text transform="matrix(9.323794e-02 0.9956 -0.9956 9.323794e-02 701.7983 177.6021)" fill="#F9F9F9" font-family="'Futura-Bold'" font-size="30px">U</text>
	
		<text transform="matrix(9.323794e-02 0.9956 -0.9956 9.323794e-02 704.0779 201.9448)" fill="#F9F9F9" font-family="'Futura-Bold'" font-size="30px">E</text>
	
		<text transform="matrix(9.323794e-02 0.9956 -0.9956 9.323794e-02 705.6723 218.9704)" fill="#F9F9F9" font-family="'Futura-Bold'" font-size="30px">R</text>
	
		<text transform="matrix(9.323794e-02 0.9956 -0.9956 9.323794e-02 707.6555 240.1478)" fill="#F9F9F9" font-family="'Futura-Bold'" font-size="30px">R</text>
	
		<text transform="matrix(9.323794e-02 0.9956 -0.9956 9.323794e-02 709.6387 261.3252)" fill="#F9F9F9" font-family="'Futura-Bold'" font-size="30px">E</text>
	
		<text transform="matrix(9.323794e-02 0.9956 -0.9956 9.323794e-02 711.233 278.3503)" fill="#F9F9F9" font-family="'Futura-Bold'" font-size="30px">R</text>
	
		<text transform="matrix(9.323794e-02 0.9956 -0.9956 9.323794e-02 713.177 299.1096)" fill="#F9F9F9" font-family="'Futura-Bold'" font-size="30px">O</text>
	
		<text transform="matrix(7.920371e-02 0.9969 -0.9969 7.920371e-02 1020.5573 412.0982)" fill="#F9F9F9" font-family="'Futura-Bold'" font-size="30px">V</text>
	
		<text transform="matrix(7.920371e-02 0.9969 -0.9969 7.920371e-02 1022.2942 433.959)" fill="#F9F9F9" font-family="'Futura-Bold'" font-size="30px">A</text>
	
		<text transform="matrix(7.920371e-02 0.9969 -0.9969 7.920371e-02 1024.1998 457.943)" fill="#F9F9F9" font-family="'Futura-Bold'" font-size="30px">L</text>
	
		<text transform="matrix(7.920371e-02 0.9969 -0.9969 7.920371e-02 1025.4639 473.8528)" fill="#F9F9F9" font-family="'Futura-Bold'" font-size="30px">E</text>
	
		<text transform="matrix(7.920371e-02 0.9969 -0.9969 7.920371e-02 1026.8182 490.8987)" fill="#F9F9F9" font-family="'Futura-Bold'" font-size="30px">N</text>
	
		<text transform="matrix(7.920371e-02 0.9969 -0.9969 7.920371e-02 1029.0066 518.4418)" fill="#F9F9F9" font-family="'Futura-Bold'" font-size="30px">C</text>
	
		<text transform="matrix(7.920371e-02 0.9969 -0.9969 7.920371e-02 1030.5914 538.3887)" fill="#F9F9F9" font-family="'Futura-Bold'" font-size="30px">I</text>
	
		<text transform="matrix(7.920371e-02 0.9969 -0.9969 7.920371e-02 1031.4326 548.975)" fill="#F9F9F9" font-family="'Futura-Bold'" font-size="30px">A</text>
	
		<text transform="matrix(7.996034e-02 0.9968 -0.9968 7.996034e-02 1317.4969 397.1094)" fill="#F9F9F9" font-family="'Futura-Bold'" font-size="30px">MISSION</text>
</g>
<text transform="matrix(1 0 0 1 129.4241 795.0762)"><tspan x="0" y="0" fill="#60CAE7" font-family="'Futura-Bold'" font-size="30px">each glowing yellow bubble is the location of a ticket to Mount Kimbie</tspan><tspan x="86.7" y="72" fill="#60CAE7" font-family="'Futura-Bold'" font-size="30px">click on a bubble to receive instructions for finding the ticket</tspan><tspan x="104.5" y="144" fill="#60CAE7" font-family="'Futura-Bold'" font-size="30px">I will do my best to update this page as tickets are found!</tspan></text>
<g id="circles">
<circle data-message="this one is by the chapel" id="test" fill="#FFF87B" cx="1013" cy="237" r="10"/>
<circle data-message="this one is dolores park" id="test" fill="#FFF87B" cx="300" cy="237" r="10"/>


</g>
</g>

</svg>